<svg xmlns="http://www.w3.org/2000/svg" viewBox="0 0 128 128"><defs><style>.Graphic-Style-6{fill:#d6e1ea;}.cls-1{fill:#fff;}.Graphic-Style-2{fill:none;stroke:#2a457f;stroke-linecap:round;stroke-linejoin:round;stroke-width:4px;}.cls-2{fill:#a6caff;}</style></defs><title>checkmark</title><g id="circles"><circle class="Graphic-Style-6" cx="64" cy="64" r="54"/></g><g id="icons"><path class="cls-1" d="M27.14,86.86l16.5,16.5A8.96,8.96,0,0,0,50,106c.14,0,.27,0,.41-.01a8.994,8.994,0,0,0,6.5-3.23L85.03,69.03l5.45-6.55,8.53-10.23,6.4-7.69,6.5-7.8A9,9,0,0,0,98.09,25.24L91.63,33l-6.41,7.68L59.98,70.98l-5.46,6.54L49.4,83.67,29.36,63.64A8.994,8.994,0,0,0,16.64,76.36l4.5,4.5Z"/><path class="Graphic-Style-2" d="M21.14,80.86l-4.5-4.5A8.994,8.994,0,0,1,29.36,63.64L49.4,83.67l5.12-6.15"/><path class="Graphic-Style-2" d="M27.14,86.86l16.5,16.5A8.96,8.96,0,0,0,50,106c.14,0,.27,0,.41-.01a8.994,8.994,0,0,0,6.5-3.23L85.03,69.03"/><path class="Graphic-Style-2" d="M59.98,70.98l25.24-30.3L91.63,33l6.46-7.76a9,9,0,0,1,13.82,11.52l-6.5,7.8-6.4,7.69L90.48,62.48"/><polygon class="cls-2" points="101.62 41.38 105.41 44.56 99.01 52.25 85.22 40.68 91.63 33 96.73 37.27 101.62 41.38"/><polyline class="Graphic-Style-2" points="101.62 41.38 105.41 44.56 99.01 52.25 85.22 40.68 91.63 33 96.73 37.27"/></g></svg>