<svg xmlns="http://www.w3.org/2000/svg" viewBox="0 0 128 128"><defs><style>.cls-1{fill:#d6e1ea;}.cls-2{fill:#a6caff;}.Graphic-Style-5{fill:#fff;}.cls-3{fill:none;stroke:#2a457f;stroke-linecap:round;stroke-linejoin:round;stroke-width:4px;}</style></defs><title>connections</title><g id="circles"><circle class="cls-1" cx="64" cy="64" r="54"/></g><g id="icons"><circle class="cls-2" cx="98" cy="30" r="8"/><circle class="Graphic-Style-5" cx="110" cy="64" r="8"/><circle class="cls-2" cx="98" cy="98" r="8"/><circle class="Graphic-Style-5" cx="30" cy="30" r="8"/><circle class="cls-2" cx="18" cy="64" r="8"/><circle class="Graphic-Style-5" cx="30" cy="98" r="8"/><circle class="Graphic-Style-5" cx="64" cy="64" r="28"/><path class="cls-3" d="M76.87,39.13A28,28,0,1,1,39.42,77.42"/><path class="cls-3" d="M36.45,69A27.432,27.432,0,0,1,36,64,28,28,0,0,1,64,36a27.36,27.36,0,0,1,3.75.25"/><circle class="cls-3" cx="98" cy="30" r="8"/><circle class="cls-3" cx="110" cy="64" r="8"/><path class="cls-3" d="M96,90.25a8.122,8.122,0,0,0-3.66,2.09,8,8,0,1,0,11.66.37"/><path class="cls-3" d="M37.73,27.93A7.833,7.833,0,0,1,38,30a8,8,0,1,1-8-8,7.833,7.833,0,0,1,2.07.27"/><circle class="cls-3" cx="18" cy="64" r="8"/><path class="cls-3" d="M26.48,105.18A7.857,7.857,0,0,0,30,106a8,8,0,1,0-8-8c0,.11,0,.22.01.33"/><line class="cls-3" x1="26" y1="64" x2="36" y2="64"/><line class="cls-3" x1="44.2" y1="44.2" x2="35.66" y2="35.66"/><line class="cls-3" x1="44.2" y1="83.8" x2="35.66" y2="92.34"/><line class="cls-3" x1="102" y1="64" x2="92" y2="64"/><line class="cls-3" x1="92.34" y1="35.66" x2="83.8" y2="44.2"/><line class="cls-3" x1="92.34" y1="92.34" x2="83.8" y2="83.8"/><circle class="cls-2" cx="64" cy="55" r="9"/><path class="cls-2" d="M50,78c0-7.732,7-14,14-14s14,6.268,14,14c0,0-3,4-14,4S50,78,50,78Z"/><circle class="cls-3" cx="64" cy="55" r="9"/><path class="cls-3" d="M72,81.1c4.56-1.18,6-3.1,6-3.1,0-7.73-7-14-14-14S50,70.27,50,78c0,0,2.63,3.51,12,3.96"/></g></svg>