<svg xmlns="http://www.w3.org/2000/svg" viewBox="0 0 128 128"><defs><style>.Graphic-Style-6{fill:#d6e1ea;}.cls-1{fill:#fff;}.cls-2{fill:#a6caff;}.cls-3{fill:none;stroke:#2a457f;stroke-linecap:round;stroke-linejoin:round;stroke-width:4px;}</style></defs><title>document-search</title><g id="circles"><circle class="Graphic-Style-6" cx="64" cy="64" r="54"/></g><g id="icons"><path class="cls-1" d="M103.33,51.67l1.5,1.5a4,4,0,0,1-5.66,5.66L94,53.46V118H22V22H66.63a12.983,12.983,0,0,1,8.13-3.94c.41-.04.82-.06,1.24-.06q.405,0,.81.03A12.961,12.961,0,0,1,85.37,22H94V42.34l4.33,4.33Z"/><path class="cls-2" d="M76,10A20,20,0,1,0,96,30,20,20,0,0,0,76,10Zm0,32A12,12,0,1,1,88,30,12,12,0,0,1,76,42Z"/><polyline class="cls-3" points="22 51 22 22 57.666 22"/><polyline class="cls-3" points="22 61 22 118 46 118"/><polyline class="cls-3" points="94 110 94 118 54 118"/><line class="cls-3" x1="94" y1="100" x2="94" y2="53.46"/><line class="cls-3" x1="34" y1="95" x2="82" y2="95"/><line class="cls-3" x1="82" y1="85" x2="70" y2="85"/><line class="cls-3" x1="60" y1="85" x2="34" y2="85"/><line class="cls-3" x1="34" y1="75" x2="82" y2="75"/><line class="cls-3" x1="34" y1="55" x2="54" y2="55"/><line class="cls-3" x1="34" y1="45" x2="46" y2="45"/><line class="cls-3" x1="34" y1="35" x2="46" y2="35"/><line class="cls-3" x1="82" y1="65" x2="51" y2="65"/><line class="cls-3" x1="41" y1="65" x2="34" y2="65"/><line class="cls-3" x1="34" y1="105" x2="70" y2="105"/><path class="cls-3" d="M64,46a20.054,20.054,0,1,0-5.56-6.44"/><path class="cls-3" d="M98.33,46.67,94,42.34l-1.32-1.32A19.765,19.765,0,0,1,87.3,46.5L94,53.46l5.17,5.37a4,4,0,0,0,5.66-5.66l-1.5-1.5"/><path class="cls-3" d="M86.44,35.94a12,12,0,1,1-.17-12.17"/></g></svg>