<svg xmlns="http://www.w3.org/2000/svg" viewBox="0 0 128 128"><defs><style>.Graphic-Style-6{fill:#d6e1ea;}.Graphic-Style-5{fill:#fff;}.cls-1{fill:#a6caff;}.cls-2{fill:none;stroke:#2a457f;stroke-linecap:round;stroke-linejoin:round;stroke-width:4px;}</style></defs><title>job-security</title><g id="circles"><circle class="Graphic-Style-6" cx="64" cy="64" r="54"/></g><g id="icons"><path class="Graphic-Style-5" d="M64,10C51,33,22,29,22,29c0,37,0,78,42,89,42-11,42-52,42-89C106,29,77,33,64,10Z"/><path class="cls-1" d="M50,84c0-7.732,7-14,14-14s14,6.268,14,14c0,0-3,4-14,4S50,84,50,84Z"/><circle class="cls-1" cx="64" cy="61" r="9"/><path class="cls-2" d="M105.97,39a215.959,215.959,0,0,1-1.82,29.15"/><path class="cls-2" d="M23.19,63c1.84,17.07,6.51,32.72,18.39,43.42"/><path class="cls-2" d="M22.41,53c-.24-4.64-.34-9.33-.38-14"/><path class="cls-2" d="M49.71,112.29A58.077,58.077,0,0,0,64,118c22.15-5.8,32.61-19.94,37.56-37.44"/><path class="cls-1" d="M64,10C51,33,22,29,22,29c0,3.311,0,6.653.031,10C22.679,39.075,48.2,41.8,64,26c15.8,15.8,41.321,13.075,41.969,13,.03-3.35.031-6.693.031-10C106,29,77,33,64,10Z"/><path class="cls-2" d="M48,35.82A42.267,42.267,0,0,0,64,26c15.8,15.8,41.32,13.08,41.97,13,.03-3.35.03-6.69.03-10a52.367,52.367,0,0,1-19-1.58"/><path class="cls-2" d="M77,23.25A35.286,35.286,0,0,1,64,10C51,33,22,29,22,29c0,3.31,0,6.65.03,10A63.941,63.941,0,0,0,38,38.35"/><circle class="cls-2" cx="64" cy="61" r="9"/><path class="cls-2" d="M72,87.1c4.56-1.18,6-3.1,6-3.1,0-7.73-7-14-14-14S50,76.27,50,84c0,0,2.63,3.51,12,3.96"/></g></svg>