<svg viewBox="0 0 24 24" fill="none" xmlns="http://www.w3.org/2000/svg">
<g clip-path="url(#clip0_187_258)">
<path d="M18.2556 7.9669C17.9244 7.9669 17.6004 7.9969 17.2848 8.0485C16.4976 5.4745 14.0592 3.6001 11.1708 3.6001C7.644 3.6001 4.7868 6.3937 4.7868 9.8389C4.7868 10.1461 4.8108 10.4485 4.8552 10.7461C4.68441 10.725 4.5125 10.7141 4.3404 10.7137C1.9428 10.7137 0 12.6121 0 14.9557C0 17.2993 1.9428 19.2001 4.3404 19.2001H9.6V14.4001H6.6L12 8.4001L17.4 14.4001H14.4V19.2001H18.2556C21.4272 19.2001 24 16.6849 24 13.5841C24 10.4809 21.4272 7.9669 18.2556 7.9669V7.9669Z" fill="#60ABEF"/>
</g>
<defs>
<clipPath id="clip0_187_258">
<rect width="24" height="24" fill="white"/>
</clipPath>
</defs>
</svg>
