<svg xmlns="http://www.w3.org/2000/svg" viewBox="0 0 128 128"><defs><style>.Graphic-Style-6{fill:#d6e1ea;}.Graphic-Style-5{fill:#fff;}.cls-1{fill:none;stroke:#2a457f;stroke-linecap:round;stroke-linejoin:round;stroke-width:4px;}.Graphic-Style-3{fill:#a6caff;}</style></defs><title>xmark</title><g id="circles"><circle class="Graphic-Style-6" cx="64" cy="64" r="54"/></g><g id="icons"><path class="Graphic-Style-5" d="M52.36,88.36l-6.02,6.02-8.98,8.98A8.994,8.994,0,0,1,24.64,90.64l8.72-8.73,7.35-7.35L51.27,64,40.08,52.8l-7.46-7.46-7.98-7.98A8.994,8.994,0,0,1,37.36,24.64l7.73,7.72,7.35,7.35L64,51.27,82.91,32.36l.23-.22,6-6,1.5-1.5a8.994,8.994,0,0,1,12.72,12.72L87.92,52.8,76.73,64,87.29,74.56l7.35,7.35L101.72,89,106,97a9,9,0,0,1-15.36,6.36l-8.98-8.98L74.2,86.92,64,76.73l-5.64,5.63Z"/><path class="cls-1" d="M89.14,26.14l1.5-1.5a8.994,8.994,0,0,1,12.72,12.72L87.92,52.8,76.73,64,87.29,74.56l7.35,7.35L101.72,89"/><path class="cls-1" d="M83.14,32.14l-.23.22L64,51.27,52.44,39.71l-7.35-7.35-7.73-7.72A8.994,8.994,0,0,0,24.64,37.36l7.98,7.98,7.46,7.46L51.27,64,40.71,74.56l-7.35,7.35-8.72,8.73a8.994,8.994,0,0,0,12.72,12.72l8.98-8.98,6.02-6.02"/><path class="cls-1" d="M58.36,82.36,64,76.73,74.2,86.92l7.46,7.46,8.98,8.98A9,9,0,0,0,106,97"/><path class="Graphic-Style-3" d="M45.09,32.36A36.248,36.248,0,0,0,32.62,45.34l7.46,7.46A26.01,26.01,0,0,1,52.44,39.71Zm42.2,42.2A26.01,26.01,0,0,1,74.2,86.92l7.46,7.46A36.249,36.249,0,0,0,94.64,81.91Z"/><path class="cls-1" d="M87.29,74.56A26.01,26.01,0,0,1,74.2,86.92l7.46,7.46A36.249,36.249,0,0,0,94.64,81.91Zm-39-32.27a25.26,25.26,0,0,1,4.15-2.58l-7.35-7.35A36.248,36.248,0,0,0,32.62,45.34l7.46,7.46a26.108,26.108,0,0,1,3.21-5.51"/></g></svg>